<!-- Generated by IcoMoon.io -->
<svg version="1.1" xmlns="http://www.w3.org/2000/svg" width="20" height="20" viewBox="0 0 20 20">
<title>heroicons-solid_menu</title>
<path d="M3 5.001c0-0.265 0.105-0.52 0.293-0.707s0.442-0.293 0.707-0.293h12c0.265 0 0.52 0.105 0.707 0.293s0.293 0.442 0.293 0.707-0.105 0.52-0.293 0.707c-0.188 0.188-0.442 0.293-0.707 0.293h-12c-0.265 0-0.52-0.105-0.707-0.293s-0.293-0.442-0.293-0.707z"></path>
<path d="M3 10.001c0-0.265 0.105-0.52 0.293-0.707s0.442-0.293 0.707-0.293h12c0.265 0 0.52 0.105 0.707 0.293s0.293 0.442 0.293 0.707c0 0.265-0.105 0.52-0.293 0.707s-0.442 0.293-0.707 0.293h-12c-0.265 0-0.52-0.105-0.707-0.293s-0.293-0.442-0.293-0.707z"></path>
<path d="M3 15.001c0-0.265 0.105-0.52 0.293-0.707s0.442-0.293 0.707-0.293h12c0.265 0 0.52 0.105 0.707 0.293s0.293 0.442 0.293 0.707c0 0.265-0.105 0.52-0.293 0.707s-0.442 0.293-0.707 0.293h-12c-0.265 0-0.52-0.105-0.707-0.293s-0.293-0.442-0.293-0.707z"></path>
</svg>
